<svg width="500" height="500" viewBox="0 0 500 500" fill="none" xmlns="http://www.w3.org/2000/svg">
<rect x="67" y="67" width="104.857" height="104.857" rx="5" fill="white"/>
<rect x="198.071" y="67" width="104.857" height="104.857" rx="5" fill="white"/>
<rect x="329.142" y="67" width="104.857" height="104.857" rx="5" fill="white"/>
<rect x="67" y="329.143" width="104.857" height="104.857" rx="5" fill="white"/>
<rect x="198.072" y="329.143" width="104.857" height="104.857" rx="5" fill="white"/>
<rect x="329.142" y="329.143" width="104.857" height="104.857" rx="5" fill="white"/>
<path d="M302.929 302.93H198.072V273.57H302.929V302.93Z" fill="white"/>
<path d="M171.857 205.098H171.858V207.811L123.898 250.5L171.858 293.188V295.906L171.857 295.905V302.93H72C69.2387 302.93 67.0002 300.691 67 297.93V203.072C67.0002 200.311 69.2387 198.072 72 198.072H171.857V205.098Z" fill="white"/>
<path d="M429 198.073C431.761 198.073 434 200.312 434 203.073V297.929C433.999 300.691 431.761 302.929 429 302.929H329.142V295.906L329.141 295.907V293.186L377.1 250.5L329.141 207.811V205.097H329.142V198.073H429Z" fill="white"/>
</svg>
