<svg width="500" height="500" viewBox="0 0 500 500" fill="none" xmlns="http://www.w3.org/2000/svg">
<rect x="163" y="163" width="49.7523" height="49.7523" rx="5" fill="white"/>
<rect x="225.19" y="163" width="49.7523" height="49.7523" rx="5" fill="white"/>
<rect x="287.381" y="163" width="49.7523" height="49.7523" rx="5" fill="white"/>
<rect x="163" y="287.381" width="49.7523" height="49.7523" rx="5" fill="white"/>
<rect x="225.191" y="287.381" width="49.7523" height="49.7523" rx="5" fill="white"/>
<rect x="287.381" y="287.381" width="49.7523" height="49.7523" rx="5" fill="white"/>
<path d="M274.943 274.944H225.191V261.013H274.943V274.944Z" fill="white"/>
<path d="M212.753 229.812L189.997 250.067L212.753 270.321V274.943H168C165.239 274.943 163 272.704 163 269.943V230.191C163 227.43 165.239 225.191 168 225.191H212.753V229.812Z" fill="white"/>
<path d="M332.133 225.191C334.894 225.191 337.133 227.43 337.133 230.191V269.944C337.133 272.705 334.894 274.944 332.133 274.944H287.381V270.321L310.136 250.067L287.381 229.812V225.191H332.133Z" fill="white"/>
</svg>
