<svg width="500" height="500" viewBox="0 0 500 500" fill="none" xmlns="http://www.w3.org/2000/svg">
<path d="M448.909 362.578H439.813V329.093H448.909V340.725C449.213 338.933 449.659 337.318 450.246 335.881C450.843 334.443 451.597 333.223 452.509 332.221C453.42 331.219 454.503 330.449 455.758 329.913C457.014 329.366 458.461 329.093 460.102 329.093H462.106V337.657H458.583C456.72 337.657 455.166 337.85 453.921 338.235C452.686 338.619 451.694 339.206 450.944 339.996C450.205 340.786 449.679 341.788 449.365 343.003C449.061 344.208 448.909 345.635 448.909 347.285V362.578Z" fill="white"/>
<path d="M436.447 351.234C435.991 353.137 435.277 354.848 434.305 356.367C433.344 357.875 432.169 359.161 430.782 360.224C429.395 361.277 427.821 362.082 426.059 362.639C424.308 363.206 422.415 363.489 420.38 363.489C418.699 363.489 417.11 363.297 415.611 362.912C414.123 362.527 412.751 361.975 411.496 361.257C410.251 360.528 409.127 359.642 408.125 358.599C407.132 357.556 406.292 356.382 405.604 355.076C404.915 353.76 404.384 352.327 404.009 350.778C403.645 349.219 403.462 347.559 403.462 345.797C403.462 344.046 403.645 342.396 404.009 340.847C404.374 339.287 404.895 337.855 405.573 336.549C406.262 335.243 407.097 334.074 408.079 333.041C409.061 332.008 410.17 331.133 411.405 330.414C412.65 329.695 414.012 329.143 415.49 328.758C416.968 328.374 418.537 328.181 420.197 328.181C422.678 328.181 424.925 328.602 426.94 329.442C428.955 330.272 430.676 331.457 432.103 332.995C433.541 334.524 434.65 336.372 435.429 338.538C436.209 340.695 436.598 343.099 436.598 345.752C436.598 346.157 436.588 346.567 436.568 346.982C436.558 347.387 436.528 347.802 436.477 348.227H412.24C412.392 349.482 412.69 350.606 413.136 351.598C413.581 352.58 414.164 353.416 414.882 354.104C415.601 354.782 416.441 355.304 417.403 355.668C418.375 356.033 419.453 356.215 420.638 356.215C424.151 356.215 426.571 354.555 427.897 351.234H436.447ZM427.866 342.608C427.482 340.199 426.646 338.386 425.361 337.172C424.085 335.947 422.379 335.334 420.243 335.334C419.15 335.334 418.157 335.496 417.267 335.82C416.376 336.144 415.596 336.615 414.928 337.232C414.26 337.85 413.708 338.614 413.273 339.525C412.837 340.426 412.529 341.454 412.346 342.608H427.866Z" fill="white"/>
<path d="M377.547 362.578H368.45V317.627H377.547V339.161C377.901 337.389 378.422 335.82 379.111 334.453C379.799 333.086 380.64 331.942 381.632 331.021C382.624 330.089 383.763 329.386 385.049 328.91C386.344 328.424 387.767 328.181 389.316 328.181C391.118 328.181 392.707 328.505 394.084 329.153C395.471 329.801 396.636 330.758 397.577 332.023C398.519 333.289 399.227 334.853 399.703 336.716C400.189 338.568 400.432 340.704 400.432 343.124V362.578H391.336V344.643C391.336 338.953 389.169 336.108 384.836 336.108C383.672 336.108 382.639 336.306 381.738 336.7C380.837 337.085 380.073 337.652 379.445 338.401C378.827 339.15 378.357 340.082 378.033 341.196C377.709 342.299 377.547 343.57 377.547 345.007V362.578Z" fill="white"/>
<path d="M341.375 345.828C341.375 347.377 341.553 348.759 341.907 349.973C342.261 351.178 342.773 352.196 343.441 353.026C344.109 353.846 344.929 354.474 345.901 354.909C346.873 355.344 347.976 355.562 349.212 355.562C350.244 355.562 351.155 355.41 351.945 355.106C352.745 354.792 353.428 354.362 353.995 353.816C354.572 353.269 355.038 352.616 355.392 351.856C355.757 351.097 356.025 350.262 356.197 349.351H365.278C365.015 351.426 364.448 353.33 363.578 355.061C362.717 356.792 361.593 358.285 360.206 359.541C358.819 360.786 357.194 361.758 355.332 362.456C353.479 363.145 351.434 363.489 349.196 363.489C347.526 363.489 345.946 363.297 344.458 362.912C342.97 362.537 341.598 361.996 340.343 361.287C339.087 360.568 337.959 359.698 336.956 358.675C335.954 357.642 335.099 356.473 334.39 355.167C333.691 353.851 333.155 352.413 332.78 350.854C332.406 349.285 332.218 347.609 332.218 345.828C332.218 344.046 332.406 342.375 332.78 340.816C333.155 339.247 333.691 337.809 334.39 336.503C335.099 335.197 335.954 334.028 336.956 332.995C337.959 331.963 339.087 331.092 340.343 330.383C341.598 329.665 342.97 329.118 344.458 328.743C345.946 328.369 347.526 328.181 349.196 328.181C351.434 328.181 353.479 328.531 355.332 329.229C357.194 329.918 358.819 330.89 360.206 332.145C361.593 333.39 362.717 334.878 363.578 336.61C364.448 338.341 365.015 340.244 365.278 342.32H356.212C356.04 341.408 355.772 340.573 355.407 339.814C355.043 339.055 354.572 338.402 353.995 337.855C353.428 337.298 352.745 336.868 351.945 336.564C351.155 336.26 350.244 336.109 349.212 336.109C347.976 336.109 346.873 336.326 345.901 336.762C344.929 337.187 344.109 337.814 343.441 338.645C342.773 339.475 342.261 340.492 341.907 341.697C341.553 342.902 341.375 344.279 341.375 345.828Z" fill="white"/>
<path d="M306.303 362.578H297.206V329.093H306.303V339.161C306.657 337.389 307.178 335.82 307.867 334.453C308.555 333.087 309.395 331.942 310.388 331.021C311.38 330.09 312.519 329.386 313.804 328.91C315.1 328.424 316.523 328.181 318.072 328.181C319.874 328.181 321.463 328.505 322.84 329.153C324.227 329.801 325.391 330.758 326.333 332.023C327.274 333.289 327.983 334.853 328.459 336.716C328.945 338.569 329.188 340.705 329.188 343.125V362.578H320.091V344.643C320.091 338.953 317.925 336.109 313.592 336.109C312.428 336.109 311.395 336.306 310.494 336.701C309.593 337.086 308.828 337.652 308.201 338.402C307.583 339.151 307.112 340.082 306.788 341.196C306.465 342.299 306.303 343.57 306.303 345.008V362.578Z" fill="white"/>
<path d="M284.229 329.093H293.325V362.578H284.229V352.509C283.874 354.281 283.353 355.85 282.665 357.217C281.976 358.584 281.136 359.733 280.144 360.664C279.151 361.586 278.007 362.284 276.712 362.76C275.426 363.246 274.008 363.489 272.459 363.489C270.657 363.489 269.063 363.165 267.676 362.517C266.299 361.869 265.14 360.912 264.198 359.647C263.257 358.381 262.543 356.822 262.057 354.97C261.581 353.107 261.343 350.966 261.343 348.546V329.093H270.44V347.027C270.44 349.882 270.976 352.018 272.049 353.436C273.133 354.853 274.768 355.562 276.955 355.562C278.109 355.562 279.136 355.37 280.037 354.985C280.949 354.59 281.713 354.018 282.33 353.269C282.948 352.509 283.419 351.578 283.743 350.475C284.067 349.371 284.229 348.1 284.229 346.663V329.093Z" fill="white"/>
<path d="M225.386 341.363C225.386 339.328 225.755 337.501 226.494 335.881C227.243 334.251 228.311 332.869 229.698 331.735C231.096 330.591 232.786 329.715 234.771 329.108C236.755 328.49 238.992 328.181 241.483 328.181C244.034 328.181 246.317 328.51 248.332 329.168C250.346 329.816 252.052 330.763 253.449 332.008C254.847 333.254 255.91 334.777 256.639 336.579C257.378 338.381 257.747 340.426 257.747 342.714V362.578H248.651V354.013C248.276 355.481 247.699 356.802 246.919 357.976C246.15 359.141 245.214 360.133 244.11 360.953C243.017 361.773 241.766 362.401 240.359 362.836C238.962 363.271 237.443 363.489 235.803 363.489C234.092 363.489 232.533 363.251 231.126 362.775C229.729 362.31 228.529 361.646 227.527 360.786C226.535 359.915 225.765 358.872 225.218 357.658C224.672 356.443 224.398 355.091 224.398 353.603C224.398 352.013 224.712 350.596 225.34 349.351C225.978 348.095 226.889 347.037 228.073 346.177C229.268 345.306 230.726 344.643 232.447 344.188C234.168 343.722 236.122 343.489 238.309 343.489H248.651V342.714C248.651 341.56 248.484 340.528 248.149 339.617C247.815 338.705 247.334 337.936 246.707 337.308C246.079 336.67 245.305 336.184 244.383 335.85C243.472 335.516 242.434 335.349 241.27 335.349C240.096 335.349 239.078 335.491 238.218 335.774C237.367 336.048 236.659 336.443 236.092 336.959C235.535 337.475 235.12 338.108 234.846 338.857C234.583 339.596 234.452 340.432 234.452 341.363H225.386ZM239.25 349.017C237.357 349.017 235.925 349.336 234.953 349.973C233.981 350.601 233.495 351.527 233.495 352.752C233.495 354.028 234.001 355.01 235.014 355.699C236.036 356.377 237.494 356.716 239.387 356.716C240.723 356.716 241.954 356.549 243.077 356.215C244.211 355.871 245.188 355.4 246.008 354.803C246.838 354.205 247.486 353.497 247.952 352.677C248.418 351.856 248.651 350.966 248.651 350.004V349.017H239.25Z" fill="white"/>
<path d="M221.415 362.578H212.319V317.627H221.415V362.578Z" fill="white"/>
<path d="M196.085 362.578H186.988V329.093H196.085V340.725C196.388 338.933 196.834 337.318 197.421 335.881C198.018 334.443 198.773 333.223 199.684 332.221C200.595 331.219 201.678 330.449 202.934 329.913C204.189 329.366 205.637 329.093 207.277 329.093H209.281V337.657H205.758C203.895 337.657 202.341 337.85 201.096 338.235C199.861 338.619 198.869 339.206 198.12 339.996C197.381 340.786 196.854 341.788 196.54 343.003C196.237 344.208 196.085 345.635 196.085 347.285V362.578Z" fill="white"/>
<path d="M183.623 351.234C183.167 353.137 182.454 354.848 181.482 356.367C180.52 357.875 179.345 359.161 177.958 360.224C176.571 361.277 174.997 362.082 173.236 362.639C171.484 363.206 169.591 363.489 167.556 363.489C165.875 363.489 164.286 363.297 162.788 362.912C161.299 362.527 159.927 361.975 158.672 361.257C157.427 360.528 156.303 359.642 155.301 358.599C154.309 357.556 153.468 356.382 152.78 355.076C152.091 353.76 151.56 352.327 151.185 350.778C150.821 349.219 150.639 347.559 150.639 345.797C150.639 344.046 150.821 342.396 151.185 340.847C151.55 339.287 152.071 337.855 152.75 336.549C153.438 335.243 154.273 334.074 155.255 333.041C156.237 332.008 157.346 331.133 158.581 330.414C159.826 329.695 161.188 329.143 162.666 328.758C164.144 328.374 165.713 328.181 167.374 328.181C169.854 328.181 172.102 328.602 174.116 329.442C176.131 330.272 177.852 331.457 179.28 332.995C180.717 334.524 181.826 336.372 182.605 338.538C183.385 340.695 183.775 343.099 183.775 345.752C183.775 346.157 183.765 346.567 183.744 346.982C183.734 347.387 183.704 347.802 183.653 348.227H159.416C159.568 349.482 159.867 350.606 160.312 351.598C160.758 352.58 161.34 353.416 162.059 354.104C162.777 354.782 163.618 355.304 164.579 355.668C165.551 356.033 166.63 356.215 167.814 356.215C171.327 356.215 173.747 354.555 175.073 351.234H183.623ZM175.043 342.608C174.658 340.199 173.823 338.386 172.537 337.172C171.261 335.947 169.555 335.334 167.419 335.334C166.326 335.334 165.334 335.496 164.443 335.82C163.552 336.144 162.772 336.615 162.104 337.232C161.436 337.85 160.884 338.614 160.449 339.525C160.014 340.426 159.705 341.454 159.523 342.608H175.043Z" fill="white"/>
<path d="M123.358 339.237C123.732 337.475 124.259 335.911 124.937 334.544C125.615 333.167 126.43 332.008 127.382 331.067C128.344 330.125 129.432 329.411 130.647 328.926C131.872 328.429 133.203 328.181 134.641 328.181C135.967 328.181 137.223 328.379 138.407 328.774C139.592 329.158 140.685 329.715 141.687 330.444C142.69 331.173 143.586 332.064 144.375 333.117C145.175 334.16 145.853 335.334 146.41 336.64C146.977 337.946 147.407 339.374 147.701 340.923C148.005 342.461 148.157 344.096 148.157 345.828C148.157 347.559 148.005 349.199 147.701 350.748C147.407 352.287 146.977 353.714 146.41 355.03C145.853 356.336 145.175 357.511 144.375 358.554C143.575 359.596 142.674 360.487 141.672 361.226C140.67 361.955 139.576 362.512 138.392 362.897C137.218 363.292 135.967 363.489 134.641 363.489C133.203 363.489 131.872 363.241 130.647 362.745C129.432 362.249 128.344 361.53 127.382 360.588C126.43 359.647 125.615 358.493 124.937 357.126C124.259 355.749 123.732 354.18 123.358 352.418V374.059H114.261V329.093H123.358V339.237ZM123.358 345.828C123.358 347.397 123.53 348.794 123.874 350.019C124.228 351.234 124.74 352.261 125.408 353.102C126.086 353.932 126.916 354.565 127.898 355C128.88 355.435 129.999 355.653 131.254 355.653C133.796 355.653 135.719 354.823 137.025 353.163C138.341 351.502 138.999 349.057 138.999 345.828C138.999 342.598 138.341 340.158 137.025 338.508C135.709 336.848 133.78 336.017 131.239 336.017C129.984 336.017 128.865 336.235 127.883 336.67C126.911 337.106 126.086 337.744 125.408 338.584C124.74 339.414 124.228 340.437 123.874 341.651C123.53 342.866 123.358 344.258 123.358 345.828Z" fill="white"/>
<path d="M111.975 329.093L99.2032 363.519C98.4742 365.514 97.6137 367.23 96.6215 368.667C95.6395 370.115 94.5006 371.305 93.2047 372.236C91.9088 373.178 90.4509 373.871 88.8311 374.317C87.2112 374.772 85.4041 375 83.4097 375C81.8708 375 80.2712 374.858 78.6108 374.575V367.225C79.3094 367.326 79.9523 367.397 80.5395 367.437C81.1267 367.488 81.6784 367.513 82.1948 367.513C83.0958 367.513 83.9159 367.437 84.6549 367.286C85.394 367.144 86.0672 366.921 86.6747 366.617C87.2821 366.314 87.8237 365.924 88.2996 365.448C88.7855 364.972 89.2209 364.405 89.6056 363.747L76.9556 329.093H86.5228L94.5107 355.501L102.62 329.093H111.975Z" fill="white"/>
<path d="M74.3578 362.578H64.7602V345.023H46.5976V362.578H37V319.146H46.5976V336.792H64.7602V319.146H74.3578V362.578Z" fill="white"/>
<rect x="161.985" y="125" width="49.7523" height="49.7523" rx="5" fill="white"/>
<rect x="224.175" y="125" width="49.7523" height="49.7523" rx="5" fill="white"/>
<rect x="286.366" y="125" width="49.7523" height="49.7523" rx="5" fill="white"/>
<rect x="161.985" y="249.381" width="49.7523" height="49.7523" rx="5" fill="white"/>
<rect x="224.176" y="249.381" width="49.7523" height="49.7523" rx="5" fill="white"/>
<rect x="286.366" y="249.381" width="49.7523" height="49.7523" rx="5" fill="white"/>
<path d="M273.928 236.944H224.176V223.013H273.928V236.944Z" fill="white"/>
<path d="M211.738 191.812L188.982 212.067L211.738 232.321V236.943H166.985C164.224 236.943 161.985 234.704 161.985 231.943V192.191C161.985 189.43 164.224 187.191 166.985 187.191H211.738V191.812Z" fill="white"/>
<path d="M331.118 187.191C333.879 187.191 336.117 189.43 336.118 192.191V231.944C336.117 234.705 333.879 236.944 331.118 236.944H286.366V232.321L309.121 212.067L286.366 191.812V187.191H331.118Z" fill="white"/>
</svg>
