<svg width="500" height="500" viewBox="0 0 500 500" fill="none" xmlns="http://www.w3.org/2000/svg">
<rect width="500" height="500" fill="white"/>
<rect x="172.169" y="129" width="44.3751" height="44.3751" rx="5" fill="#030303"/>
<rect x="227.638" y="129" width="44.3751" height="44.3751" rx="5" fill="#030303"/>
<rect x="283.107" y="129" width="44.3751" height="44.3751" rx="5" fill="#030303"/>
<rect x="172.169" y="239.938" width="44.3751" height="44.3751" rx="5" fill="#030303"/>
<rect x="227.638" y="239.938" width="44.3751" height="44.3751" rx="5" fill="#030303"/>
<rect x="283.107" y="239.938" width="44.3751" height="44.3751" rx="5" fill="#030303"/>
<path d="M216.544 187.442L183.263 206.657L216.544 225.872V228.844H182.169C176.646 228.844 172.169 224.367 172.169 218.844V194.469C172.169 188.947 176.646 184.469 182.169 184.469H216.544V187.442Z" fill="#030303"/>
<path d="M317.482 184.47C323.005 184.47 327.482 188.947 327.482 194.47V218.845C327.482 224.368 323.005 228.845 317.482 228.845H283.107V225.872L316.388 206.657L283.107 187.442V184.47H317.482Z" fill="#030303"/>
<path d="M272.013 228.844H227.638V216.42H272.013V228.844Z" fill="#00DF82"/>
<path d="M120.411 338.906H113.301V325.901H99.8459V338.906H92.7359V306.731H99.8459V319.803H113.301V306.731H120.411V338.906ZM148.278 314.099L138.817 339.603C138.277 341.081 137.639 342.352 136.904 343.417C136.177 344.489 135.333 345.371 134.373 346.061C133.413 346.758 132.333 347.272 131.133 347.602C129.933 347.939 128.594 348.108 127.117 348.108C125.977 348.108 124.792 348.003 123.562 347.793V342.348C124.079 342.423 124.556 342.476 124.991 342.506C125.426 342.543 125.834 342.562 126.217 342.562C126.884 342.562 127.492 342.506 128.039 342.393C128.587 342.288 129.086 342.123 129.536 341.898C129.986 341.673 130.387 341.384 130.739 341.032C131.099 340.679 131.422 340.259 131.707 339.772L122.336 314.099H129.423L135.341 333.663L141.348 314.099H148.278ZM156.711 321.614C156.988 320.309 157.378 319.151 157.881 318.138C158.383 317.118 158.987 316.259 159.692 315.562C160.405 314.864 161.211 314.336 162.111 313.976C163.018 313.608 164.005 313.424 165.07 313.424C166.052 313.424 166.982 313.571 167.86 313.863C168.737 314.148 169.547 314.561 170.29 315.101C171.032 315.641 171.696 316.301 172.281 317.081C172.873 317.853 173.376 318.723 173.788 319.691C174.208 320.658 174.527 321.716 174.745 322.863C174.97 324.003 175.082 325.214 175.082 326.497C175.082 327.779 174.97 328.994 174.745 330.142C174.527 331.282 174.208 332.339 173.788 333.314C173.376 334.282 172.873 335.152 172.281 335.924C171.688 336.697 171.021 337.357 170.278 337.904C169.536 338.444 168.726 338.857 167.848 339.142C166.978 339.434 166.052 339.581 165.07 339.581C164.005 339.581 163.018 339.397 162.111 339.029C161.211 338.662 160.405 338.129 159.692 337.432C158.987 336.734 158.383 335.879 157.881 334.867C157.378 333.847 156.988 332.684 156.711 331.379V347.411H149.972V314.099H156.711V321.614ZM156.711 326.497C156.711 327.659 156.838 328.694 157.093 329.602C157.356 330.502 157.735 331.263 158.23 331.886C158.732 332.501 159.347 332.969 160.075 333.292C160.802 333.614 161.631 333.776 162.561 333.776C164.443 333.776 165.868 333.161 166.836 331.931C167.811 330.701 168.298 328.889 168.298 326.497C168.298 324.104 167.811 322.297 166.836 321.074C165.861 319.844 164.432 319.229 162.55 319.229C161.62 319.229 160.791 319.391 160.063 319.713C159.343 320.036 158.732 320.508 158.23 321.131C157.735 321.746 157.356 322.503 157.093 323.403C156.838 324.303 156.711 325.334 156.711 326.497ZM201.355 330.502C201.018 331.912 200.489 333.179 199.769 334.304C199.057 335.422 198.187 336.374 197.159 337.162C196.132 337.942 194.965 338.538 193.66 338.951C192.363 339.371 190.96 339.581 189.453 339.581C188.208 339.581 187.03 339.438 185.92 339.153C184.818 338.868 183.802 338.459 182.872 337.927C181.949 337.387 181.117 336.731 180.374 335.958C179.639 335.186 179.017 334.316 178.507 333.348C177.997 332.373 177.603 331.312 177.325 330.164C177.055 329.009 176.92 327.779 176.92 326.474C176.92 325.177 177.055 323.954 177.325 322.807C177.595 321.652 177.982 320.591 178.484 319.623C178.994 318.656 179.613 317.789 180.34 317.024C181.068 316.259 181.889 315.611 182.804 315.078C183.727 314.546 184.735 314.137 185.83 313.852C186.925 313.567 188.088 313.424 189.318 313.424C191.155 313.424 192.82 313.736 194.313 314.358C195.805 314.973 197.08 315.851 198.138 316.991C199.203 318.123 200.024 319.492 200.602 321.097C201.179 322.694 201.468 324.476 201.468 326.441C201.468 326.741 201.46 327.044 201.445 327.352C201.438 327.652 201.415 327.959 201.378 328.274H183.423C183.535 329.204 183.757 330.037 184.087 330.772C184.417 331.499 184.848 332.118 185.38 332.628C185.913 333.131 186.535 333.517 187.248 333.787C187.968 334.057 188.767 334.192 189.644 334.192C192.247 334.192 194.039 332.962 195.022 330.502H201.355ZM194.999 324.112C194.714 322.327 194.095 320.984 193.143 320.084C192.198 319.177 190.934 318.723 189.352 318.723C188.542 318.723 187.807 318.843 187.147 319.083C186.487 319.323 185.909 319.672 185.414 320.129C184.919 320.587 184.51 321.153 184.188 321.828C183.865 322.496 183.637 323.257 183.502 324.112H194.999ZM210.588 338.906H203.849V314.099H210.588V322.717C210.813 321.389 211.143 320.193 211.578 319.128C212.02 318.063 212.579 317.159 213.254 316.417C213.929 315.674 214.731 315.104 215.661 314.707C216.591 314.302 217.664 314.099 218.879 314.099H220.364V320.444H217.754C216.374 320.444 215.223 320.587 214.3 320.872C213.385 321.157 212.65 321.592 212.095 322.177C211.548 322.762 211.158 323.504 210.925 324.404C210.7 325.297 210.588 326.354 210.588 327.577V338.906ZM229.352 338.906H222.614V305.606H229.352V338.906ZM232.294 323.189C232.294 321.682 232.568 320.328 233.115 319.128C233.67 317.921 234.461 316.897 235.489 316.057C236.524 315.209 237.776 314.561 239.246 314.111C240.716 313.653 242.374 313.424 244.219 313.424C246.109 313.424 247.8 313.668 249.293 314.156C250.785 314.636 252.049 315.337 253.084 316.259C254.119 317.182 254.906 318.311 255.446 319.646C255.994 320.981 256.268 322.496 256.268 324.191V338.906H249.529V332.561C249.251 333.648 248.824 334.627 248.246 335.497C247.676 336.359 246.983 337.094 246.165 337.702C245.355 338.309 244.429 338.774 243.386 339.097C242.351 339.419 241.226 339.581 240.011 339.581C238.744 339.581 237.589 339.404 236.546 339.052C235.511 338.707 234.623 338.216 233.88 337.578C233.145 336.933 232.575 336.161 232.17 335.261C231.765 334.361 231.563 333.359 231.563 332.257C231.563 331.079 231.795 330.029 232.26 329.107C232.733 328.177 233.408 327.393 234.285 326.756C235.17 326.111 236.25 325.619 237.525 325.282C238.8 324.937 240.248 324.764 241.868 324.764H249.529V324.191C249.529 323.336 249.405 322.571 249.158 321.896C248.91 321.221 248.554 320.651 248.089 320.186C247.624 319.713 247.05 319.353 246.368 319.106C245.693 318.858 244.924 318.734 244.061 318.734C243.191 318.734 242.438 318.839 241.8 319.049C241.17 319.252 240.645 319.544 240.225 319.927C239.813 320.309 239.505 320.778 239.303 321.333C239.108 321.881 239.01 322.499 239.01 323.189H232.294ZM242.565 328.859C241.163 328.859 240.101 329.096 239.381 329.568C238.661 330.033 238.301 330.719 238.301 331.627C238.301 332.572 238.676 333.299 239.426 333.809C240.184 334.312 241.264 334.563 242.666 334.563C243.656 334.563 244.568 334.439 245.4 334.192C246.24 333.937 246.964 333.588 247.571 333.146C248.186 332.703 248.666 332.178 249.011 331.571C249.356 330.963 249.529 330.303 249.529 329.591V328.859H242.565ZM275.886 314.099H282.624V338.906H275.886V331.447C275.623 332.759 275.237 333.922 274.727 334.934C274.217 335.947 273.594 336.798 272.859 337.488C272.124 338.171 271.277 338.688 270.317 339.041C269.364 339.401 268.314 339.581 267.167 339.581C265.832 339.581 264.651 339.341 263.623 338.861C262.603 338.381 261.744 337.672 261.047 336.734C260.349 335.797 259.821 334.642 259.461 333.269C259.108 331.889 258.932 330.303 258.932 328.511V314.099H265.671V327.386C265.671 329.501 266.068 331.083 266.863 332.133C267.666 333.183 268.877 333.708 270.497 333.708C271.352 333.708 272.113 333.566 272.781 333.281C273.456 332.988 274.022 332.564 274.479 332.009C274.937 331.447 275.286 330.757 275.526 329.939C275.766 329.122 275.886 328.181 275.886 327.116V314.099ZM292.238 338.906H285.499V314.099H292.238V321.558C292.501 320.246 292.887 319.083 293.397 318.071C293.907 317.058 294.529 316.211 295.264 315.528C295.999 314.838 296.843 314.317 297.796 313.964C298.756 313.604 299.809 313.424 300.957 313.424C302.292 313.424 303.469 313.664 304.489 314.144C305.517 314.624 306.379 315.333 307.077 316.271C307.774 317.208 308.299 318.367 308.652 319.747C309.012 321.119 309.192 322.702 309.192 324.494V338.906H302.453V325.619C302.453 321.404 300.848 319.297 297.638 319.297C296.776 319.297 296.011 319.443 295.343 319.736C294.676 320.021 294.109 320.441 293.644 320.996C293.187 321.551 292.838 322.241 292.598 323.066C292.358 323.883 292.238 324.824 292.238 325.889V338.906ZM318.221 326.497C318.221 327.644 318.352 328.668 318.614 329.568C318.877 330.461 319.256 331.214 319.751 331.829C320.246 332.437 320.853 332.902 321.573 333.224C322.293 333.547 323.111 333.708 324.026 333.708C324.791 333.708 325.466 333.596 326.051 333.371C326.643 333.138 327.149 332.819 327.569 332.414C327.997 332.009 328.342 331.526 328.604 330.963C328.874 330.401 329.073 329.782 329.201 329.107H335.928C335.733 330.644 335.313 332.054 334.668 333.337C334.031 334.619 333.198 335.726 332.171 336.656C331.143 337.578 329.939 338.298 328.559 338.816C327.187 339.326 325.672 339.581 324.014 339.581C322.777 339.581 321.607 339.438 320.504 339.153C319.402 338.876 318.386 338.474 317.456 337.949C316.526 337.417 315.689 336.772 314.947 336.014C314.204 335.249 313.571 334.383 313.046 333.416C312.528 332.441 312.131 331.376 311.853 330.221C311.576 329.058 311.437 327.817 311.437 326.497C311.437 325.177 311.576 323.939 311.853 322.784C312.131 321.622 312.528 320.557 313.046 319.589C313.571 318.622 314.204 317.756 314.947 316.991C315.689 316.226 316.526 315.581 317.456 315.056C318.386 314.523 319.402 314.118 320.504 313.841C321.607 313.563 322.777 313.424 324.014 313.424C325.672 313.424 327.187 313.683 328.559 314.201C329.939 314.711 331.143 315.431 332.171 316.361C333.198 317.283 334.031 318.386 334.668 319.668C335.313 320.951 335.733 322.361 335.928 323.898H329.212C329.084 323.223 328.886 322.604 328.616 322.042C328.346 321.479 327.997 320.996 327.569 320.591C327.149 320.178 326.643 319.859 326.051 319.634C325.466 319.409 324.791 319.297 324.026 319.297C323.111 319.297 322.293 319.458 321.573 319.781C320.853 320.096 320.246 320.561 319.751 321.176C319.256 321.791 318.877 322.544 318.614 323.437C318.352 324.329 318.221 325.349 318.221 326.497ZM345.016 338.906H338.278V305.606H345.016V321.558C345.279 320.246 345.665 319.083 346.175 318.071C346.685 317.058 347.308 316.211 348.043 315.528C348.778 314.838 349.621 314.317 350.574 313.964C351.534 313.604 352.588 313.424 353.735 313.424C355.07 313.424 356.248 313.664 357.268 314.144C358.295 314.624 359.158 315.333 359.855 316.271C360.553 317.208 361.078 318.367 361.43 319.747C361.79 321.119 361.97 322.702 361.97 324.494V338.906H355.231V325.619C355.231 321.404 353.626 319.297 350.416 319.297C349.554 319.297 348.789 319.443 348.121 319.736C347.454 320.021 346.888 320.441 346.423 320.996C345.965 321.551 345.616 322.241 345.376 323.066C345.136 323.883 345.016 324.824 345.016 325.889V338.906ZM388.65 330.502C388.313 331.912 387.784 333.179 387.064 334.304C386.352 335.422 385.482 336.374 384.454 337.162C383.427 337.942 382.26 338.538 380.955 338.951C379.658 339.371 378.255 339.581 376.748 339.581C375.503 339.581 374.325 339.438 373.215 339.153C372.113 338.868 371.097 338.459 370.167 337.927C369.244 337.387 368.412 336.731 367.669 335.958C366.934 335.186 366.312 334.316 365.802 333.348C365.292 332.373 364.898 331.312 364.62 330.164C364.35 329.009 364.215 327.779 364.215 326.474C364.215 325.177 364.35 323.954 364.62 322.807C364.89 321.652 365.277 320.591 365.779 319.623C366.289 318.656 366.908 317.789 367.635 317.024C368.363 316.259 369.184 315.611 370.099 315.078C371.022 314.546 372.03 314.137 373.125 313.852C374.22 313.567 375.383 313.424 376.613 313.424C378.45 313.424 380.115 313.736 381.608 314.358C383.1 314.973 384.375 315.851 385.433 316.991C386.498 318.123 387.319 319.492 387.897 321.097C388.474 322.694 388.763 324.476 388.763 326.441C388.763 326.741 388.755 327.044 388.74 327.352C388.733 327.652 388.71 327.959 388.673 328.274H370.718C370.83 329.204 371.052 330.037 371.382 330.772C371.712 331.499 372.143 332.118 372.675 332.628C373.208 333.131 373.83 333.517 374.543 333.787C375.263 334.057 376.062 334.192 376.939 334.192C379.542 334.192 381.334 332.962 382.317 330.502H388.65ZM382.294 324.112C382.009 322.327 381.39 320.984 380.438 320.084C379.493 319.177 378.229 318.723 376.647 318.723C375.837 318.723 375.102 318.843 374.442 319.083C373.782 319.323 373.204 319.672 372.709 320.129C372.214 320.587 371.805 321.153 371.483 321.828C371.16 322.496 370.932 323.257 370.797 324.112H382.294ZM397.883 338.906H391.144V314.099H397.883V322.717C398.108 321.389 398.438 320.193 398.873 319.128C399.315 318.063 399.874 317.159 400.549 316.417C401.224 315.674 402.026 315.104 402.956 314.707C403.886 314.302 404.959 314.099 406.174 314.099H407.659V320.444H405.049C403.669 320.444 402.518 320.587 401.595 320.872C400.68 321.157 399.945 321.592 399.39 322.177C398.843 322.762 398.453 323.504 398.22 324.404C397.995 325.297 397.883 326.354 397.883 327.577V338.906Z" fill="black"/>
</svg>
