<svg width="500" height="500" viewBox="0 0 500 500" fill="none" xmlns="http://www.w3.org/2000/svg">
<rect x="161.985" y="125" width="49.7523" height="49.7523" rx="5" fill="white"/>
<rect x="224.175" y="125" width="49.7523" height="49.7523" rx="5" fill="white"/>
<rect x="286.366" y="125" width="49.7523" height="49.7523" rx="5" fill="white"/>
<rect x="161.985" y="249.381" width="49.7523" height="49.7523" rx="5" fill="white"/>
<rect x="224.176" y="249.381" width="49.7523" height="49.7523" rx="5" fill="white"/>
<rect x="286.366" y="249.381" width="49.7523" height="49.7523" rx="5" fill="white"/>
<path d="M273.928 236.944H224.176V223.013H273.928V236.944Z" fill="white"/>
<path d="M211.738 191.812L188.982 212.067L211.738 232.321V236.943H166.985C164.224 236.943 161.985 234.704 161.985 231.943V192.191C161.985 189.43 164.224 187.191 166.985 187.191H211.738V191.812Z" fill="white"/>
<path d="M331.118 187.191C333.879 187.191 336.117 189.43 336.118 192.191V231.944C336.117 234.705 333.879 236.944 331.118 236.944H286.366V232.321L309.121 212.067L286.366 191.812V187.191H331.118Z" fill="white"/>
<path d="M448.909 401.951H439.813V368.466H448.909V380.098C449.213 378.306 449.659 376.692 450.246 375.254C450.843 373.816 451.597 372.596 452.509 371.594C453.42 370.592 454.503 369.822 455.758 369.286C457.014 368.739 458.461 368.466 460.102 368.466H462.106V377.031H458.583C456.72 377.031 455.166 377.223 453.921 377.608C452.686 377.993 451.694 378.58 450.944 379.369C450.205 380.159 449.679 381.161 449.365 382.376C449.061 383.581 448.909 385.009 448.909 386.659V401.951Z" fill="white"/>
<path d="M436.447 390.607C435.991 392.51 435.277 394.221 434.305 395.74C433.344 397.249 432.169 398.534 430.782 399.597C429.395 400.65 427.821 401.455 426.059 402.012C424.308 402.579 422.415 402.862 420.38 402.862C418.699 402.862 417.11 402.67 415.611 402.285C414.123 401.901 412.751 401.349 411.496 400.63C410.251 399.901 409.127 399.015 408.125 397.972C407.132 396.93 406.292 395.755 405.604 394.449C404.915 393.133 404.384 391.701 404.009 390.152C403.645 388.592 403.462 386.932 403.462 385.171C403.462 383.419 403.645 381.769 404.009 380.22C404.374 378.661 404.895 377.228 405.573 375.922C406.262 374.616 407.097 373.447 408.079 372.414C409.061 371.382 410.17 370.506 411.405 369.787C412.65 369.068 414.012 368.516 415.49 368.132C416.968 367.747 418.537 367.555 420.197 367.555C422.678 367.555 424.925 367.975 426.94 368.815C428.955 369.645 430.676 370.83 432.103 372.369C433.541 373.897 434.65 375.745 435.429 377.912C436.209 380.068 436.598 382.472 436.598 385.125C436.598 385.53 436.588 385.94 436.568 386.355C436.558 386.76 436.528 387.175 436.477 387.6H412.24C412.392 388.856 412.69 389.979 413.136 390.972C413.581 391.954 414.164 392.789 414.882 393.477C415.601 394.156 416.441 394.677 417.403 395.041C418.375 395.406 419.453 395.588 420.638 395.588C424.151 395.588 426.571 393.928 427.897 390.607H436.447ZM427.866 381.981C427.482 379.572 426.646 377.76 425.361 376.545C424.085 375.32 422.379 374.707 420.243 374.707C419.15 374.707 418.157 374.869 417.267 375.193C416.376 375.517 415.596 375.988 414.928 376.606C414.26 377.223 413.708 377.988 413.273 378.899C412.837 379.8 412.529 380.827 412.346 381.981H427.866Z" fill="white"/>
<path d="M377.547 401.951H368.45V357H377.547V378.534C377.901 376.762 378.422 375.193 379.111 373.826C379.799 372.459 380.64 371.315 381.632 370.394C382.624 369.463 383.763 368.759 385.049 368.283C386.344 367.797 387.767 367.554 389.316 367.554C391.118 367.554 392.707 367.878 394.084 368.526C395.471 369.174 396.636 370.131 397.577 371.396C398.519 372.662 399.227 374.226 399.703 376.089C400.189 377.942 400.432 380.078 400.432 382.497V401.951H391.336V384.016C391.336 378.326 389.169 375.481 384.836 375.481C383.672 375.481 382.639 375.679 381.738 376.074C380.837 376.458 380.073 377.025 379.445 377.775C378.827 378.524 378.357 379.455 378.033 380.569C377.709 381.672 377.547 382.943 377.547 384.381V401.951Z" fill="white"/>
<path d="M341.375 385.201C341.375 386.75 341.553 388.132 341.907 389.347C342.261 390.551 342.773 391.569 343.441 392.399C344.109 393.219 344.929 393.847 345.901 394.282C346.873 394.718 347.976 394.935 349.212 394.935C350.244 394.935 351.155 394.783 351.945 394.48C352.745 394.166 353.428 393.735 353.995 393.189C354.572 392.642 355.038 391.989 355.392 391.23C355.757 390.47 356.025 389.635 356.197 388.724H365.278C365.015 390.8 364.448 392.703 363.578 394.434C362.717 396.165 361.593 397.659 360.206 398.914C358.819 400.159 357.194 401.131 355.332 401.83C353.479 402.518 351.434 402.862 349.196 402.862C347.526 402.862 345.946 402.67 344.458 402.285C342.97 401.911 341.598 401.369 340.343 400.66C339.087 399.942 337.959 399.071 336.956 398.048C335.954 397.016 335.099 395.846 334.39 394.54C333.691 393.224 333.155 391.787 332.78 390.228C332.406 388.658 332.218 386.983 332.218 385.201C332.218 383.419 332.406 381.749 332.78 380.19C333.155 378.62 333.691 377.183 334.39 375.877C335.099 374.571 335.954 373.401 336.956 372.369C337.959 371.336 339.087 370.465 340.343 369.757C341.598 369.038 342.97 368.491 344.458 368.117C345.946 367.742 347.526 367.555 349.196 367.555C351.434 367.555 353.479 367.904 355.332 368.603C357.194 369.291 358.819 370.263 360.206 371.518C361.593 372.764 362.717 374.252 363.578 375.983C364.448 377.714 365.015 379.618 365.278 381.693H356.212C356.04 380.782 355.772 379.947 355.407 379.187C355.043 378.428 354.572 377.775 353.995 377.228C353.428 376.671 352.745 376.241 351.945 375.937C351.155 375.634 350.244 375.482 349.212 375.482C347.976 375.482 346.873 375.699 345.901 376.135C344.929 376.56 344.109 377.188 343.441 378.018C342.773 378.848 342.261 379.866 341.907 381.07C341.553 382.275 341.375 383.652 341.375 385.201Z" fill="white"/>
<path d="M306.303 401.951H297.206V368.466H306.303V378.534C306.657 376.763 307.178 375.193 307.867 373.827C308.555 372.46 309.395 371.316 310.388 370.394C311.38 369.463 312.519 368.759 313.804 368.284C315.1 367.798 316.523 367.555 318.072 367.555C319.874 367.555 321.463 367.879 322.84 368.527C324.227 369.175 325.391 370.131 326.333 371.397C327.274 372.662 327.983 374.226 328.459 376.089C328.945 377.942 329.188 380.078 329.188 382.498V401.951H320.091V384.016C320.091 378.327 317.925 375.482 313.592 375.482C312.428 375.482 311.395 375.679 310.494 376.074C309.593 376.459 308.828 377.026 308.201 377.775C307.583 378.524 307.112 379.456 306.788 380.569C306.465 381.673 306.303 382.943 306.303 384.381V401.951Z" fill="white"/>
<path d="M284.229 368.466H293.325V401.951H284.229V391.883C283.874 393.654 283.353 395.224 282.665 396.59C281.976 397.957 281.136 399.106 280.144 400.038C279.151 400.959 278.007 401.658 276.712 402.133C275.426 402.619 274.008 402.862 272.459 402.862C270.657 402.862 269.063 402.538 267.676 401.89C266.299 401.242 265.14 400.286 264.198 399.02C263.257 397.755 262.543 396.196 262.057 394.343C261.581 392.48 261.343 390.339 261.343 387.919V368.466H270.44V386.401C270.44 389.256 270.976 391.392 272.049 392.809C273.133 394.226 274.768 394.935 276.955 394.935C278.109 394.935 279.136 394.743 280.037 394.358C280.949 393.963 281.713 393.391 282.33 392.642C282.948 391.883 283.419 390.951 283.743 389.848C284.067 388.744 284.229 387.474 284.229 386.036V368.466Z" fill="white"/>
<path d="M225.386 380.736C225.386 378.701 225.755 376.874 226.494 375.254C227.243 373.624 228.311 372.242 229.698 371.108C231.096 369.964 232.786 369.088 234.771 368.481C236.755 367.863 238.992 367.555 241.483 367.555C244.034 367.555 246.317 367.884 248.332 368.542C250.346 369.19 252.052 370.136 253.449 371.382C254.847 372.627 255.91 374.151 256.639 375.953C257.378 377.755 257.747 379.8 257.747 382.088V401.951H248.651V393.386C248.276 394.854 247.699 396.175 246.919 397.35C246.15 398.514 245.214 399.506 244.11 400.326C243.017 401.146 241.766 401.774 240.359 402.209C238.962 402.645 237.443 402.862 235.803 402.862C234.092 402.862 232.533 402.624 231.126 402.149C229.729 401.683 228.529 401.02 227.527 400.159C226.535 399.289 225.765 398.246 225.218 397.031C224.672 395.816 224.398 394.464 224.398 392.976C224.398 391.387 224.712 389.969 225.34 388.724C225.978 387.469 226.889 386.411 228.073 385.55C229.268 384.68 230.726 384.016 232.447 383.561C234.168 383.095 236.122 382.862 238.309 382.862H248.651V382.088C248.651 380.934 248.484 379.901 248.149 378.99C247.815 378.079 247.334 377.309 246.707 376.682C246.079 376.044 245.305 375.558 244.383 375.224C243.472 374.89 242.434 374.723 241.27 374.723C240.096 374.723 239.078 374.864 238.218 375.148C237.367 375.421 236.659 375.816 236.092 376.332C235.535 376.849 235.12 377.481 234.846 378.231C234.583 378.97 234.452 379.805 234.452 380.736H225.386ZM239.25 388.39C237.357 388.39 235.925 388.709 234.953 389.347C233.981 389.974 233.495 390.901 233.495 392.126C233.495 393.401 234.001 394.383 235.014 395.072C236.036 395.75 237.494 396.089 239.387 396.089C240.723 396.089 241.954 395.922 243.077 395.588C244.211 395.244 245.188 394.773 246.008 394.176C246.838 393.579 247.486 392.87 247.952 392.05C248.418 391.23 248.651 390.339 248.651 389.377V388.39H239.25Z" fill="white"/>
<path d="M221.415 401.951H212.319V357H221.415V401.951Z" fill="white"/>
<path d="M196.085 401.951H186.988V368.466H196.085V380.098C196.388 378.306 196.834 376.692 197.421 375.254C198.018 373.816 198.773 372.596 199.684 371.594C200.595 370.592 201.678 369.822 202.934 369.286C204.189 368.739 205.637 368.466 207.277 368.466H209.281V377.031H205.758C203.895 377.031 202.341 377.223 201.096 377.608C199.861 377.993 198.869 378.58 198.12 379.369C197.381 380.159 196.854 381.161 196.54 382.376C196.237 383.581 196.085 385.009 196.085 386.659V401.951Z" fill="white"/>
<path d="M183.623 390.607C183.167 392.51 182.454 394.221 181.482 395.74C180.52 397.249 179.345 398.534 177.958 399.597C176.571 400.65 174.997 401.455 173.236 402.012C171.484 402.579 169.591 402.862 167.556 402.862C165.875 402.862 164.286 402.67 162.788 402.285C161.299 401.901 159.927 401.349 158.672 400.63C157.427 399.901 156.303 399.015 155.301 397.972C154.309 396.93 153.468 395.755 152.78 394.449C152.091 393.133 151.56 391.701 151.185 390.152C150.821 388.592 150.639 386.932 150.639 385.171C150.639 383.419 150.821 381.769 151.185 380.22C151.55 378.661 152.071 377.228 152.75 375.922C153.438 374.616 154.273 373.447 155.255 372.414C156.237 371.382 157.346 370.506 158.581 369.787C159.826 369.068 161.188 368.516 162.666 368.132C164.144 367.747 165.713 367.555 167.374 367.555C169.854 367.555 172.102 367.975 174.116 368.815C176.131 369.645 177.852 370.83 179.28 372.369C180.717 373.897 181.826 375.745 182.605 377.912C183.385 380.068 183.775 382.472 183.775 385.125C183.775 385.53 183.765 385.94 183.744 386.355C183.734 386.76 183.704 387.175 183.653 387.6H159.416C159.568 388.856 159.867 389.979 160.312 390.972C160.758 391.954 161.34 392.789 162.059 393.477C162.777 394.156 163.618 394.677 164.579 395.041C165.551 395.406 166.63 395.588 167.814 395.588C171.327 395.588 173.747 393.928 175.073 390.607H183.623ZM175.043 381.981C174.658 379.572 173.823 377.76 172.537 376.545C171.261 375.32 169.555 374.707 167.419 374.707C166.326 374.707 165.334 374.869 164.443 375.193C163.552 375.517 162.772 375.988 162.104 376.606C161.436 377.223 160.884 377.988 160.449 378.899C160.014 379.8 159.705 380.827 159.523 381.981H175.043Z" fill="white"/>
<path d="M123.358 378.61C123.732 376.849 124.259 375.284 124.937 373.918C125.615 372.541 126.43 371.382 127.382 370.44C128.344 369.499 129.432 368.785 130.647 368.299C131.872 367.803 133.203 367.555 134.641 367.555C135.967 367.555 137.223 367.752 138.407 368.147C139.592 368.532 140.685 369.088 141.687 369.817C142.69 370.546 143.586 371.437 144.375 372.49C145.175 373.533 145.853 374.707 146.41 376.013C146.977 377.319 147.407 378.747 147.701 380.296C148.005 381.835 148.157 383.47 148.157 385.201C148.157 386.932 148.005 388.572 147.701 390.121C147.407 391.66 146.977 393.088 146.41 394.404C145.853 395.71 145.175 396.884 144.375 397.927C143.575 398.97 142.674 399.861 141.672 400.6C140.67 401.329 139.576 401.885 138.392 402.27C137.218 402.665 135.967 402.862 134.641 402.862C133.203 402.862 131.872 402.614 130.647 402.118C129.432 401.622 128.344 400.903 127.382 399.962C126.43 399.02 125.615 397.866 124.937 396.499C124.259 395.122 123.732 393.553 123.358 391.792V413.432H114.261V368.466H123.358V378.61ZM123.358 385.201C123.358 386.77 123.53 388.167 123.874 389.392C124.228 390.607 124.74 391.635 125.408 392.475C126.086 393.305 126.916 393.938 127.898 394.373C128.88 394.809 129.999 395.026 131.254 395.026C133.796 395.026 135.719 394.196 137.025 392.536C138.341 390.875 138.999 388.43 138.999 385.201C138.999 381.971 138.341 379.531 137.025 377.881C135.709 376.221 133.78 375.391 131.239 375.391C129.984 375.391 128.865 375.608 127.883 376.044C126.911 376.479 126.086 377.117 125.408 377.957C124.74 378.787 124.228 379.81 123.874 381.025C123.53 382.24 123.358 383.632 123.358 385.201Z" fill="white"/>
<path d="M111.975 368.466L99.2032 402.893C98.4742 404.887 97.6137 406.603 96.6215 408.041C95.6395 409.488 94.5006 410.678 93.2047 411.609C91.9088 412.551 90.4509 413.245 88.8311 413.69C87.2112 414.146 85.4041 414.373 83.4097 414.373C81.8708 414.373 80.2712 414.232 78.6108 413.948V406.598C79.3094 406.699 79.9523 406.77 80.5395 406.811C81.1267 406.861 81.6784 406.887 82.1948 406.887C83.0958 406.887 83.9159 406.811 84.6549 406.659C85.394 406.517 86.0672 406.294 86.6747 405.991C87.2821 405.687 87.8237 405.297 88.2996 404.821C88.7855 404.345 89.2209 403.779 89.6056 403.12L76.9556 368.466H86.5228L94.5107 394.874L102.62 368.466H111.975Z" fill="white"/>
<path d="M74.3578 401.951H64.7602V384.396H46.5976V401.951H37V358.519H46.5976V376.165H64.7602V358.519H74.3578V401.951Z" fill="white"/>
</svg>
