<svg viewBox="0 0 500 500" xmlns="http://www.w3.org/2000/svg">
  <!-- App grid squares -->
  <rect x="162" y="125" width="50" height="50" rx="5" fill="#030303"/>
  <rect x="224" y="125" width="50" height="50" rx="5" fill="#030303"/>
  <rect x="286" y="125" width="50" height="50" rx="5" fill="#030303"/>
  <rect x="162" y="249" width="50" height="50" rx="5" fill="#030303"/>
  <rect x="224" y="249" width="50" height="50" rx="5" fill="#030303"/>
  <rect x="286" y="249" width="50" height="50" rx="5" fill="#030303"/>
  
  <!-- Center bar (underscore) -->
  <rect x="224" y="223" width="50" height="14" fill="#00DF82"/>
  
  <!-- Left arrow -->
  <path d="M212 192L189 212l23 20v5h-45c-3 0-5-2-5-5v-40c0-3 2-5 5-5h45v5z" fill="#030303"/>
  
  <!-- Right arrow -->
  <path d="M331 187c3 0 5 2 5 5v40c0 3-2 5-5 5h-45v-5l23-20-23-20v-5h45z" fill="#030303"/>
</svg>